<?xml version="1.0" encoding="utf-8"?>
<!-- Generator: Adobe Illustrator 24.0.2, SVG Export Plug-In . SVG Version: 6.00 Build 0)  -->
<svg version="1.1" id="Layer_1" xmlns="http://www.w3.org/2000/svg" xmlns:xlink="http://www.w3.org/1999/xlink" x="0px" y="0px"
	 viewBox="0 0 500 500" style="enable-background:new 0 0 500 500;" xml:space="preserve">
<style type="text/css">
	.st0{fill:#FFFFFF;}
</style>
<path id="Carrés" d="M0.9,166.2h150.6v142H0.9V166.2z M174.7,308.2h150.6v-142H174.7V308.2z M348.4,308.2H499v-142H348.4V308.2z"/>
<path id="B" class="st0" d="M267.2,234c0,0,13.1-5.6,13-20.5c0,0,2-24.3-30.2-27.3h-35.8v102h41c0,0,34.3,0.1,34.3-28.8
	C289.5,259.5,290.3,239.8,267.2,234z M232.4,202.1H247c15.2,0.8,14.6,12.1,14.6,12.1c0,14.1-16.8,14.3-16.8,14.3h-12.5V202.1z
	 M270.7,258c0,15.4-19.2,14.5-19.2,14.5h-19.2v-27.9h19.2C271.3,244.5,270.7,258,270.7,258z"/>
<path id="B_1_" class="st0" d="M93.5,234c0,0,13.1-5.6,13-20.5c0,0,2-24.3-30.2-27.3H40.5v102h41c0,0,34.3,0.1,34.3-28.8
	C115.8,259.5,116.6,239.8,93.5,234z M58.7,202.1h14.6c15.2,0.8,14.6,12.1,14.6,12.1c0,14.1-16.8,14.3-16.8,14.3H58.7V202.1z
	 M97.1,258c0,15.4-19.2,14.5-19.2,14.5H58.7v-27.9h19.2C97.7,244.5,97.1,258,97.1,258z"/>
<path id="C" class="st0" d="M468.3,193.5v18.9c0,0-18.4-11.3-38.7-11.5c0,0-37.9-0.7-39.6,36.4c0,0-1.4,34.1,39.2,36.1
	c0,0,17,2.1,40.1-12.7v19.5c0,0-31,18.4-66.8,4.2c0,0-30.2-11-31.3-47.2c0,0-1.3-37.2,39-49.5c0,0,10.7-4.1,30-2.3
	C440,185.4,451.6,186.6,468.3,193.5z"/>
</svg>
