<?xml version="1.0" encoding="utf-8"?>
<!-- Generator: Adobe Illustrator 23.1.0, SVG Export Plug-In . SVG Version: 6.00 Build 0)  -->
<svg version="1.1" id="Layer_1" xmlns="http://www.w3.org/2000/svg" xmlns:xlink="http://www.w3.org/1999/xlink" x="0px" y="0px"
	 viewBox="0 0 165 165" style="enable-background:new 0 0 165 165;" xml:space="preserve">
<g>
	<path d="M122.38,43.04l-7.5,0.05c-0.25-5.89-0.73-13.63-1.36-5.95c-0.2,2.49-0.36,4.44-0.49,5.96l-1.67,0.01
		c-0.11-5.4-0.48-18.25-1.35-9.08c-0.45,4.71-0.71,7.47-0.87,9.09l-18.85,0.12l1.86-2.28l-3.94-2.69l3.73-1.24l-3.73-2.9l2.28-1.04
		l-2.9-5.18l-1.04-4.25c0,0,7.25,0.52,16-1.09c0,0-9.79-1.61-15.58-0.98c0,0-1.25-6.06-4.49-6.31l0,0c-0.06,0-0.13,0-0.19,0
		c-0.06,0-0.12,0-0.19,0l0,0c-3.24,0.25-4.49,6.31-4.49,6.31c-5.8-0.62-15.58,0.98-15.58,0.98c8.75,1.61,16,1.09,16,1.09l-1.04,4.25
		l-2.9,5.18l2.28,1.04l-3.73,2.9l3.73,1.24l-3.94,2.69l1.86,2.28l-18.85-0.12c-0.16-1.62-0.42-4.39-0.87-9.09
		c-0.88-9.17-1.24,3.68-1.35,9.08l-1.67-0.01c-0.12-1.52-0.28-3.47-0.49-5.96c-0.63-7.68-1.11,0.06-1.36,5.95l-7.5-0.05
		C-2.76,46.15,0.76,54.43,0.76,54.43c5.38,16.78,60.48,23.82,60.48,23.82c14.5,0.41,14.7,7.46,14.7,7.46
		c2.07,2.07,3.94,40.39,3.94,40.39c-20.09,1.45-21.12,11.6-21.12,11.6c-0.41,8.7,19.05,7.04,19.05,7.04l4.09-4.14l0.38,9.12
		l0.38-9.12l4.09,4.14c0,0,19.47,1.66,19.05-7.04c0,0-1.04-10.15-21.12-11.6c0,0,1.86-38.31,3.94-40.39c0,0,0.21-7.04,14.7-7.46
		c0,0,55.09-7.04,60.48-23.82C163.8,54.43,167.32,46.15,122.38,43.04z M25.75,64.72c-4.29,0-7.77-3.48-7.77-7.77
		s3.48-7.77,7.77-7.77s7.77,3.48,7.77,7.77S30.04,64.72,25.75,64.72z M138.42,65.27c-4.29,0-7.77-3.48-7.77-7.77
		s3.48-7.77,7.77-7.77c4.29,0,7.77,3.48,7.77,7.77S142.71,65.27,138.42,65.27z"/>
	<ellipse cx="25.55" cy="57.19" rx="4.42" ry="4.42"/>
	<ellipse cx="138.49" cy="57.47" rx="4.42" ry="4.42"/>
</g>
</svg>
