<?xml version="1.0" encoding="utf-8"?>
<!-- Generator: Adobe Illustrator 23.1.0, SVG Export Plug-In . SVG Version: 6.00 Build 0)  -->
<svg version="1.1" id="Layer_1" xmlns="http://www.w3.org/2000/svg" xmlns:xlink="http://www.w3.org/1999/xlink" x="0px" y="0px"
	 viewBox="0 0 711.67 165" style="enable-background:new 0 0 711.67 165;" xml:space="preserve">
<g>
	<path d="M27.9,57.45c-0.89-3.12-1.34-6.85-1.34-11.21c0-9.45,1.74-16.96,5.23-22.53s10.16-8.35,20.01-8.35
		c12.67,0,20.14,6.09,22.42,18.26c0.99,5.25,1.48,11.85,1.48,19.82v7.72H61V52.4c0-8.31-0.42-13.91-1.26-16.78s-1.88-4.78-3.12-5.72
		c-1.24-0.94-2.85-1.41-4.83-1.41c-3.71,0-6.38,1.36-8.02,4.08c-1.63,2.72-2.45,6.76-2.45,12.1s0.74,9.26,2.23,11.73
		c1.48,2.48,3.32,4.84,5.49,7.09c2.18,2.25,3.39,3.53,3.64,3.82l8.91,9.43c10.69,11.19,16.04,23.71,16.04,37.56
		c0,11.28-1.74,19.91-5.23,25.87c-3.49,5.96-10.13,8.95-19.93,8.95c-11.83,0-19.33-5.2-22.49-15.59
		c-1.83-5.84-2.75-13.49-2.75-22.94c0-0.25,0-0.49,0-0.74V97.17h14.92v13.29c0,9.55,0.69,16.2,2.08,19.93
		c1.39,3.74,3.96,5.6,7.72,5.6c3.76,0,6.36-0.88,7.8-2.64c1.43-1.76,2.26-4.44,2.49-8.05c0.22-3.61,0.33-7.67,0.33-12.18
		c0-9.06-3.98-17.57-11.95-25.54l-8.54-8.54C34.45,71.24,29.73,64.04,27.9,57.45z"/>
	<path d="M127.57,16.99h26.28c11.58,0,18.86,4.8,21.83,14.4c1.88,6.04,2.82,13.09,2.82,21.16s-0.22,14.13-0.67,18.19
		c-0.99,8.91-3.34,15.4-7.05,19.49c-3.71,4.08-9.35,6.12-16.93,6.12h-10.91v51.3h-15.37V16.99z M163.12,53.89
		c0-8.96-0.71-15.32-2.12-19.08c-1.41-3.76-4.19-5.64-8.35-5.64h-9.73v54.42h9.35c4.35,0,7.25-1.9,8.69-5.72
		c1.43-3.81,2.15-10.96,2.15-21.45L163.12,53.89L163.12,53.89z"/>
	<path d="M228.27,16.99h15.37v130.66h-15.37V16.99z"/>
	<path d="M291.04,16.99h43.13v12.77h-13.44v117.89h-15.29V29.76h-14.4V16.99z"/>
	<path d="M380.32,16.99h39.35v12.84h-24.05v41.28h22.57V84.1h-22.57v63.55h-15.29V16.99H380.32z"/>
	<path d="M470.41,16.99h15.37v130.66h-15.37V16.99z"/>
	<path d="M541.79,16.99h27.39c7.77,0,13.36,1.61,16.78,4.83c3.42,3.22,5.47,8.69,6.16,16.41c0.3,3.17,0.45,8.1,0.45,14.81
		s-0.88,12.34-2.64,16.89c-1.76,4.55-4.86,7.5-9.32,8.83c3.27,0.55,5.74,2.26,7.42,5.16c1.68,2.9,2.87,7.5,3.56,13.81
		s1.04,15.69,1.04,28.14s0.4,19.71,1.19,21.79h-15.29c-0.79-1.58-1.19-16.26-1.19-44.02c0-9.35-0.92-14.78-2.75-16.29
		s-4.6-2.26-8.31-2.26l-9.13-0.52v63.1h-15.37V16.99H541.79z M577.35,48.99c0-10.05-0.9-15.86-2.71-17.45
		c-1.81-1.58-4.42-2.38-7.83-2.38h-9.65v44.1h9.8c2.97,0,5.15-0.57,6.53-1.71c1.39-1.14,2.38-3.32,2.97-6.53
		c0.59-3.22,0.89-8.26,0.89-15.14L577.35,48.99L577.35,48.99z"/>
	<path d="M645.99,16.99h39.05v12.77h-23.68v44.69h22.42v12.77h-22.42v47.66h23.98v12.77h-39.35V16.99z"/>
</g>
</svg>
