<?xml version="1.0" encoding="utf-8"?>
<!-- Generator: Adobe Illustrator 24.0.2, SVG Export Plug-In . SVG Version: 6.00 Build 0)  -->
<svg version="1.1" id="Layer_1" xmlns="http://www.w3.org/2000/svg" xmlns:xlink="http://www.w3.org/1999/xlink" x="0px" y="0px"
	 viewBox="0 0 500 500" style="enable-background:new 0 0 500 500;" xml:space="preserve">
<style type="text/css">
	.st0{fill:#ED342E;}
	.st1{fill:#232628;}
	.st2{fill:#FFFFFF;}
</style>
<g id="XMLID_1_">
	<path id="XMLID_87_" class="st0" d="M107,214.1c0.7,0.9,1.6,0.4,2.4,0.5c9.3,0.4,18.6,0.7,27.8,1.9c12.5,1.6,18.8,7.5,20.7,20
		c2.4,16.2,2.5,32.6,1.7,48.9c-0.3,6.5-0.9,12.9-2.1,19.3c-1.9,10.4-8.4,16.5-18.9,17.8c-17.3,2.1-34.7,2.2-52.1,2.4
		c-17.8,0.2-35.6-0.3-53.4-1.5c-4-0.3-8.1-0.7-12-1.4c-8.7-1.6-14.7-7.4-16.5-16c-1.5-6.8-1.9-13.8-2.4-20.7
		c-0.1-0.7,0.4-1.6-0.5-2.2c0-9.1,0-18.1,0-27.2c0.9-0.5,0.4-1.5,0.5-2.2c0.5-6.1,0.9-12.2,1.9-18.3c1.9-11.3,8.4-17.5,19.8-18.9
		c9.1-1.2,18.2-1.4,27.3-1.9c0.8,0,1.8,0.5,2.4-0.5C71.4,214.1,89.2,214.1,107,214.1z M65.3,245.9c0,15.9,0,31.3,0,47.2
		c13.8-7.9,27.2-15.7,41-23.6C92.4,261.5,79,253.8,65.3,245.9z"/>
	<path id="XMLID_84_" class="st1" d="M498.9,301c-0.9,0.7-0.5,1.8-0.6,2.7c-1.4,7.4-5.8,11.8-13.2,13.4c-4.7,1-9.3,1-13.9-0.2
		c-7.1-1.9-10.4-7.2-12-13.9c-0.6-2.4-1.2-4.9-1.2-7.4c-0.3-11.5-1.4-23.1,1.2-34.6c2.3-10,7.9-14.5,18.3-15
		c2.3-0.1,4.5-0.1,6.8,0.3c8,1.5,12.2,5.9,13.7,14.2c0.3,1.5,0.1,3.2,1,4.5c0,7.4,0,14.9,0,22.3c-8.3-0.1-16.7-0.1-25-0.2
		c-0.8,0-1.2,0.2-1.2,1.1c0.1,5-0.2,10,0.9,15c0.6,2.7,2.3,4,5,4c2.7,0,4.4-1.2,5.2-3.8c0.7-2,1-4.1,0.9-6.2c0-1.3,0.2-1.9,1.7-1.8
		c3.5,0.3,7.1,0.5,10.7,0.6c0.9,0,1.2,0.6,1.7,1C498.9,298.4,498.9,299.7,498.9,301z M472.7,270.3c0,1.9,0,4.2,0,6.4
		c0,0.9,0.1,1.5,1.3,1.5c3-0.1,6,0,9,0c0.7,0,1.3,0,1.3-1c-0.1-5.5,0.2-11-0.9-16.4c-0.6-2.8-2.4-4-5.3-4c-2.4,0-3.7,1.2-4.4,4
		C472.8,263.8,473,266.9,472.7,270.3z"/>
	<path id="XMLID_79_" class="st1" d="M421.8,254.9c2.8-4.4,6.1-7.3,10.7-8.4c7-1.7,12.8,1.3,15.4,8c1.5,4,2.1,8.2,2.3,12.3
		c0.5,11.1,1,22.2-0.4,33.2c-0.4,3.2-1.1,6.4-2.4,9.3c-2,4.7-5.1,8.1-10.4,8.6c-5.8,0.6-10.8-1.2-14.5-6c-0.3-0.4-0.6-0.9-1.1-1.5
		c-0.2,0.6-0.4,1-0.5,1.4c-1.3,5.2-1.3,5.2-6.5,5.2c-1.9,0-3.7-0.1-5.6,0c-1.8,0.1-2.1-0.5-2.1-2.2c0.1-14.8,0-29.6,0-44.4
		c0-16.5,0.1-33-0.1-49.5c0-2.3,0.7-2.7,2.7-2.6c3.3,0.2,6.6,0.2,9.9,0c2.4-0.2,2.7,0.8,2.7,2.8
		C421.8,232.2,421.8,243.2,421.8,254.9z M434.8,283c0-3.9,0.1-7.8,0-11.6c-0.1-3.6-0.3-7.3-1.5-10.7c-1.2-3.3-4.2-4.4-7.2-2.5
		c-2.5,1.6-4,3.9-4,7c0,12,0,23.9,0,35.9c0,2.9,1.5,4.8,4.4,5.4c3.1,0.6,5.3-0.4,6.4-3.3c0.5-1.1,0.8-2.3,1-3.5
		C434.8,294.2,434.7,288.6,434.8,283z"/>
	<path id="XMLID_78_" class="st1" d="M303.3,308.2c-2.8,5-6.2,8.3-11.2,9.5c-9,2.2-15.8-2.4-17.1-11.6c-0.3-2.5-0.5-5-0.5-7.5
		c0-16.3,0-32.5,0-48.8c0-1.8,0.4-2.5,2.3-2.4c3.8,0.2,7.6,0.1,11.4,0c1.7-0.1,2.1,0.5,2.1,2.2c-0.1,15.8,0,31.5,0,47.3
		c0,2.4-0.1,4.8,0.7,7.2c0.6,1.9,1.8,2.8,3.8,2.8c3.8,0,6.5-2.7,6.5-6.5c0-16.9,0-33.8,0-50.7c0-1.8,0.5-2.3,2.3-2.2
		c4,0.1,7.9,0.1,11.9,0c1.4,0,1.7,0.4,1.7,1.8c0,22,0,44,0,66c0,1.2-0.2,1.8-1.6,1.7c-3.2-0.1-6.3-0.1-9.5,0c-1.2,0-1.5-0.4-1.6-1.5
		C304.2,313.4,303.8,311.2,303.3,308.2z"/>
	<path id="XMLID_77_" class="st1" d="M383.6,308.3c-2.5,4.6-5.5,7.8-10,9.2c-9.8,3.1-17.4-2-18.4-12.2c-0.5-4.5-0.4-9.1-0.4-13.6
		c0-13.9,0-27.8-0.1-41.8c0-1.9,0.5-2.5,2.4-2.4c3.8,0.2,7.6,0.1,11.4,0c1.7-0.1,2.1,0.4,2.1,2.1c-0.1,15.9,0,31.9,0,47.8
		c0,2.1-0.1,4.2,0.5,6.3c0.7,2.6,2,3.4,4.6,3.2c3.4-0.3,5.8-2.8,5.8-6.2c0-16.9,0-33.8,0-50.7c0-1.8,0.3-2.5,2.3-2.5
		c3.9,0.2,7.8,0.1,11.7,0c1.4,0,1.9,0.3,1.9,1.8c-0.1,21.9-0.1,43.9,0,65.8c0,1.5-0.3,2-1.9,1.9c-3-0.1-6-0.1-9,0
		c-1.1,0-1.7-0.2-1.8-1.5C384.5,313.3,384.1,311.1,383.6,308.3z"/>
	<path id="XMLID_74_" class="st1" d="M266.6,284c-0.1,4.8,0,11.2-1.2,17.5c-2.3,11.6-8.6,16.8-20.4,16.7c-2.5,0-5-0.3-7.5-0.8
		c-7.6-1.8-11.3-7.1-12.9-14.4c-0.7-3.1-1.1-6.2-1.2-9.4c-0.3-10.3-0.9-20.5,1.1-30.7c2.6-13.3,11.4-17.7,24-16.5
		c9.8,0.9,15.4,6,17.4,19.3C266.6,271.3,266.6,276.9,266.6,284z M239.1,282.1c0,4.4-0.1,8.9,0,13.3c0.1,3,0.2,6,1.4,8.8
		c0.8,1.9,2.2,3,4.2,3.1c2.1,0.1,3.5-1.1,4.3-2.9c0.7-1.5,1-3.2,1.2-4.9c0.8-10.4,0.4-20.8,0.3-31.3c0-2.8-0.3-5.7-1.4-8.3
		c-0.8-1.9-2.2-3-4.3-2.9c-2.1,0-3.5,1.1-4.3,3c-0.6,1.5-0.9,3.1-1.1,4.7C238.8,270.5,239.2,276.3,239.1,282.1z"/>
	<path id="XMLID_73_" class="st1" d="M176,221.9c4.9,0,9.7,0,14.4,0c1.4,0,1.3,1,1.5,1.7c3.1,15,6.7,29.9,9.3,45
		c0,0.2,0.1,0.3,0.2,0.6c1.6-7.5,3.1-15,4.7-22.4c1.7-7.8,3.5-15.6,5.2-23.4c0.2-1,0.4-1.6,1.6-1.6c4.7,0.1,9.4,0,14.3,0
		c-1.5,5.5-3,10.7-4.5,16c-4.4,15.6-8.7,31.2-13.1,46.8c-0.3,1.1-0.3,2.2-0.3,3.4c0,8.8-0.1,17.6,0,26.5c0,1.9-0.4,2.7-2.5,2.6
		c-3.5-0.2-7.1-0.2-10.7,0c-1.9,0.1-2.5-0.4-2.4-2.4c0.2-5.2-0.2-10.4,0.1-15.5c0.5-8.6-1.1-16.8-3.4-25c-4.9-16.9-9.5-34-14.2-51
		C176.1,222.8,176.1,222.4,176,221.9z"/>
	<path id="XMLID_72_" class="st1" d="M344,275.8c0,12.9,0,25.9,0,38.8c0,1.9-0.5,2.5-2.4,2.4c-3.5-0.2-7-0.2-10.4,0
		c-2,0.1-2.6-0.5-2.6-2.5c0.1-21.7,0-43.4,0-65.1c0-4.3-0.1-8.6,0-12.9c0-1.5-0.3-2.1-2-2.1c-3.9,0.1-7.8,0-11.7,0.1
		c-1.4,0-2-0.2-1.9-1.8c0.1-3,0.1-6,0-9c0-1.4,0.3-1.9,1.8-1.9c14.2,0.1,28.5,0.1,42.7,0c1.5,0,1.9,0.4,1.9,1.9
		c-0.1,3.1-0.1,6.2,0,9.2c0,1.3-0.4,1.6-1.6,1.6c-3.7-0.1-7.5,0.1-11.2-0.1c-2.1-0.1-2.8,0.4-2.8,2.7
		C344.1,250.1,344,262.9,344,275.8z"/>
	<path id="XMLID_71_" class="st2" d="M65.3,245.9c13.7,7.9,27.2,15.6,41,23.6c-13.8,7.9-27.3,15.7-41,23.6
		C65.3,277.2,65.3,261.7,65.3,245.9z"/>
</g>
</svg>
